<svg width="12" height="4" viewBox="0 0 12 4" fill="none" xmlns="http://www.w3.org/2000/svg">
<path d="M1.34233 3.09659C1.04451 3.09659 0.788944 2.98994 0.575639 2.77663C0.362334 2.56333 0.255682 2.30777 0.255682 2.00994C0.255682 1.71212 0.362334 1.45656 0.575639 1.24325C0.788944 1.02995 1.04451 0.923295 1.34233 0.923295C1.64015 0.923295 1.89572 1.02995 2.10902 1.24325C2.32232 1.45656 2.42898 1.71212 2.42898 2.00994C2.42898 2.20715 2.37867 2.38826 2.27805 2.55327C2.18146 2.71828 2.05066 2.85109 1.88565 2.9517C1.72467 3.0483 1.54356 3.09659 1.34233 3.09659ZM6.02397 3.09659C5.72615 3.09659 5.47058 2.98994 5.25728 2.77663C5.04397 2.56333 4.93732 2.30777 4.93732 2.00994C4.93732 1.71212 5.04397 1.45656 5.25728 1.24325C5.47058 1.02995 5.72615 0.923295 6.02397 0.923295C6.32179 0.923295 6.57736 1.02995 6.79066 1.24325C7.00397 1.45656 7.11062 1.71212 7.11062 2.00994C7.11062 2.20715 7.06031 2.38826 6.95969 2.55327C6.8631 2.71828 6.7323 2.85109 6.56729 2.9517C6.40631 3.0483 6.2252 3.09659 6.02397 3.09659ZM10.7056 3.09659C10.4078 3.09659 10.1522 2.98994 9.93892 2.77663C9.72562 2.56333 9.61896 2.30777 9.61896 2.00994C9.61896 1.71212 9.72562 1.45656 9.93892 1.24325C10.1522 1.02995 10.4078 0.923295 10.7056 0.923295C11.0034 0.923295 11.259 1.02995 11.4723 1.24325C11.6856 1.45656 11.7923 1.71212 11.7923 2.00994C11.7923 2.20715 11.742 2.38826 11.6413 2.55327C11.5447 2.71828 11.4139 2.85109 11.2489 2.9517C11.0879 3.0483 10.9068 3.09659 10.7056 3.09659Z" fill="black" fill-opacity="0.9"/>
</svg>
